<svg width="38" height="24" viewBox="0 0 38 24" fill="none" xmlns="http://www.w3.org/2000/svg">
<path d="M34.75 0.750244H3.25C2.55381 0.750244 1.88613 0.987297 1.39384 1.40925C0.901562 1.83121 0.625 2.40351 0.625 3.00024V21.0002C0.625 21.597 0.901562 22.1693 1.39384 22.5912C1.88613 23.0132 2.55381 23.2502 3.25 23.2502H34.75C35.4462 23.2502 36.1139 23.0132 36.6062 22.5912C37.0984 22.1693 37.375 21.597 37.375 21.0002V3.00024C37.375 2.40351 37.0984 1.83121 36.6062 1.40925C36.1139 0.987297 35.4462 0.750244 34.75 0.750244ZM31.8625 3.00024L19 10.6277L6.1375 3.00024H31.8625ZM3.25 21.0002V4.02399L18.2519 12.9227C18.4716 13.0534 18.7326 13.1234 19 13.1234C19.2674 13.1234 19.5284 13.0534 19.7481 12.9227L34.75 4.02399V21.0002H3.25Z" fill="#FFFDF6" fill-opacity="0.8"/>
</svg>
