<svg width="30" height="30" viewBox="0 0 30 30" fill="none" xmlns="http://www.w3.org/2000/svg">
<path fill-rule="evenodd" clip-rule="evenodd" d="M8.95398 0.421618C10.518 0.349618 11.0167 0.333618 15.0007 0.333618C18.9846 0.333618 19.4833 0.350951 21.046 0.421618C22.6087 0.492285 23.6753 0.741618 24.6086 1.10295C25.586 1.47228 26.4726 2.04962 27.206 2.79628C27.9526 3.52828 28.5287 4.41362 28.8967 5.39228C29.2593 6.32562 29.5073 7.39228 29.5793 8.95228C29.6513 10.519 29.6673 11.0176 29.6673 15.0003C29.6673 18.9843 29.65 19.483 29.5793 21.0469C29.5086 22.607 29.2593 23.6736 28.8967 24.607C28.5286 25.5857 27.9517 26.4725 27.206 27.2056C26.4726 27.9523 25.586 28.5283 24.6086 28.8963C23.6753 29.259 22.6086 29.507 21.0486 29.5789C19.4833 29.6509 18.9846 29.667 15.0007 29.667C11.0167 29.667 10.518 29.6496 8.95398 29.5789C7.39398 29.5083 6.32732 29.259 5.39398 28.8963C4.41521 28.5282 3.52841 27.9513 2.79532 27.2056C2.04916 26.4732 1.47174 25.5868 1.10332 24.6083C0.741984 23.6749 0.493984 22.6083 0.421984 21.0483C0.349984 19.4816 0.333984 18.983 0.333984 15.0003C0.333984 11.0163 0.351318 10.5176 0.421984 8.95495C0.492651 7.39228 0.741984 6.32562 1.10332 5.39228C1.47228 4.41373 2.05014 3.52737 2.79665 2.79495C3.5287 2.04895 4.41461 1.47154 5.39265 1.10295C6.32598 0.741618 7.39265 0.493618 8.95265 0.421618H8.95398ZM20.9273 3.06162C19.3806 2.99095 18.9167 2.97628 15.0007 2.97628C11.0847 2.97628 10.6207 2.99095 9.07398 3.06162C7.64332 3.12695 6.86732 3.36562 6.34998 3.56695C5.66598 3.83362 5.17665 4.14962 4.66332 4.66295C4.17671 5.13635 3.80222 5.71266 3.56732 6.34962C3.36598 6.86695 3.12732 7.64295 3.06198 9.07362C2.99132 10.6203 2.97665 11.0843 2.97665 15.0003C2.97665 18.9163 2.99132 19.3803 3.06198 20.927C3.12732 22.3576 3.36598 23.1336 3.56732 23.651C3.80198 24.287 4.17665 24.8643 4.66332 25.3376C5.13665 25.8243 5.71398 26.199 6.34998 26.4336C6.86732 26.635 7.64332 26.8736 9.07398 26.939C10.6207 27.0096 11.0833 27.0243 15.0007 27.0243C18.918 27.0243 19.3806 27.0096 20.9273 26.939C22.358 26.8736 23.134 26.635 23.6513 26.4336C24.3353 26.167 24.8246 25.851 25.338 25.3376C25.8246 24.8643 26.1993 24.287 26.434 23.651C26.6353 23.1336 26.874 22.3576 26.9393 20.927C27.01 19.3803 27.0246 18.9163 27.0246 15.0003C27.0246 11.0843 27.01 10.6203 26.9393 9.07362C26.874 7.64295 26.6353 6.86695 26.434 6.34962C26.1673 5.66562 25.8513 5.17628 25.338 4.66295C24.8646 4.17638 24.2883 3.8019 23.6513 3.56695C23.134 3.36562 22.358 3.12695 20.9273 3.06162ZM13.1273 19.5216C14.1735 19.9571 15.3385 20.0159 16.4232 19.6879C17.508 19.3599 18.4452 18.6655 19.0748 17.7233C19.7044 16.781 19.9874 15.6494 19.8754 14.5218C19.7634 13.3941 19.2633 12.3402 18.4606 11.5403C17.949 11.0289 17.3303 10.6374 16.6491 10.3938C15.9679 10.1503 15.2412 10.0608 14.5213 10.1318C13.8014 10.2028 13.1062 10.4325 12.4857 10.8045C11.8653 11.1764 11.335 11.6813 10.9331 12.2828C10.5311 12.8842 10.2676 13.5673 10.1613 14.2829C10.0551 14.9985 10.1089 15.7287 10.3187 16.421C10.5286 17.1133 10.8893 17.7504 11.3749 18.2866C11.8606 18.8227 12.4591 19.2445 13.1273 19.5216ZM9.66998 9.66962C10.37 8.96958 11.2011 8.41429 12.1157 8.03543C13.0304 7.65658 14.0107 7.46158 15.0007 7.46158C15.9906 7.46158 16.9709 7.65658 17.8856 8.03543C18.8002 8.41429 19.6313 8.96958 20.3313 9.66962C21.0313 10.3697 21.5866 11.2007 21.9655 12.1153C22.3444 13.03 22.5394 14.0103 22.5394 15.0003C22.5394 15.9903 22.3444 16.9706 21.9655 17.8852C21.5866 18.7999 21.0313 19.6309 20.3313 20.3309C18.9175 21.7447 17 22.539 15.0007 22.539C13.0013 22.539 11.0838 21.7447 9.66998 20.3309C8.2562 18.9172 7.46195 16.9997 7.46195 15.0003C7.46195 13.0009 8.2562 11.0834 9.66998 9.66962ZM24.2113 8.58428C24.3848 8.42064 24.5237 8.22386 24.6197 8.00558C24.7158 7.78731 24.7671 7.55198 24.7705 7.31352C24.774 7.07507 24.7296 6.83835 24.64 6.61736C24.5503 6.39638 24.4172 6.19563 24.2486 6.027C24.08 5.85837 23.8792 5.72529 23.6582 5.63564C23.4373 5.54599 23.2005 5.50159 22.9621 5.50506C22.7236 5.50854 22.4883 5.55982 22.27 5.65588C22.0517 5.75194 21.855 5.89081 21.6913 6.06428C21.3731 6.40166 21.1988 6.84978 21.2056 7.31352C21.2123 7.77727 21.3996 8.22012 21.7275 8.54807C22.0555 8.87603 22.4983 9.06326 22.9621 9.07002C23.4258 9.07678 23.8739 8.90254 24.2113 8.58428Z" fill="#FFFDF6" fill-opacity="0.8"/>
</svg>
