<svg width="30" height="27" viewBox="0 0 30 27" fill="none" xmlns="http://www.w3.org/2000/svg">
<path d="M29.5832 22.4516L25.3535 26.2277C24.7291 26.804 23.9016 26.9992 23.0956 27.0001C19.5313 26.904 16.1623 25.3283 13.3961 23.7103C8.8555 20.7374 4.68935 17.0511 2.0746 12.5963C1.07175 10.7283 -0.104946 8.34487 0.0074795 6.25982C0.0175045 5.47547 0.252354 4.70568 0.86613 4.2001L5.09578 0.395331C5.97408 -0.277036 6.82345 -0.0445661 7.38551 0.738614L10.7883 6.54591C11.1464 7.23389 10.941 7.97104 10.4066 8.46264L8.84833 9.86439C8.75213 9.98299 8.69088 10.118 8.68933 10.2649C9.28688 12.3467 11.0972 14.2654 12.6964 15.5858C14.2955 16.9063 16.0145 18.6953 18.2458 19.1188C18.5216 19.1881 18.8594 19.2124 19.0567 19.0473L20.8695 17.3881C21.4944 16.9618 22.3966 16.7535 23.0638 17.102H23.0956L29.2333 20.3632C30.1343 20.8715 30.2283 21.8539 29.5832 22.4516Z" fill="#FFFDF6" fill-opacity="0.8"/>
</svg>
